<svg xmlns:xlink="http://www.w3.org/1999/xlink" xmlns="http://www.w3.org/2000/svg" id="jsv-tree" class="overlay" width="1000" height="400" ><g id="node-group" transform="translate(293.25,243.6818181818182)scale(1)"><path class="link" d="M320,98.18181818181819C400,98.18181818181819 400,49.09090909090909 480,49.09090909090909" stroke="#CCCCCC" fill="none" stroke-width="1.5px"></path><path class="link" d="M320,98.18181818181819C400,98.18181818181819 400,81.81818181818181 480,81.81818181818181" stroke="#CCCCCC" fill="none" stroke-width="1.5px"></path><path class="link" d="M320,98.18181818181819C400,98.18181818181819 400,114.54545454545455 480,114.54545454545455" stroke="#CCCCCC" fill="none" stroke-width="1.5px"></path><path class="link" d="M320,98.18181818181819C400,98.18181818181819 400,147.27272727272728 480,147.27272727272728" stroke="#CCCCCC" fill="none" stroke-width="1.5px"></path><path class="link" d="M160,98.18181818181819C240,98.18181818181819 240,98.18181818181819 320,98.18181818181819" stroke="#CCCCCC" fill="none" stroke-width="1.5px"></path><path class="link" d="M0,81.81818181818181C80,81.81818181818181 80,32.72727272727273 160,32.72727272727273" stroke="#CCCCCC" fill="none" stroke-width="1.5px"></path><path class="link" d="M0,81.81818181818181C80,81.81818181818181 80,65.45454545454545 160,65.45454545454545" stroke="#CCCCCC" fill="none" stroke-width="1.5px"></path><path class="link" d="M0,81.81818181818181C80,81.81818181818181 80,98.18181818181819 160,98.18181818181819" stroke="#CCCCCC" fill="none" stroke-width="1.5px"></path><path class="link" d="M0,81.81818181818181C80,81.81818181818181 80,130.9090909090909 160,130.9090909090909" stroke="#CCCCCC" fill="none" stroke-width="1.5px"></path><g class="node" id="n-11" transform="translate(160,130.90908813476562)"><circle r="6.5" stroke="#4682B4" fill="#FFFFFF" stroke-width="1.5px"></circle><text x="20" dy="0.35em" class="node-text" text-anchor="start" style="fill-opacity: 1;">code:string</text></g><g class="node" id="n-12" transform="translate(480,147.27272033691406)"><circle r="6.5" stroke="#4682B4" fill="#FFFFFF" stroke-width="1.5px"></circle><text x="20" dy="0.35em" class="node-text" text-anchor="start" style="fill-opacity: 1;">answer_cols:number</text></g><g class="node" id="n-13" transform="translate(480,114.54545593261719)"><circle r="6.5" stroke="#4682B4" fill="#FFFFFF" stroke-width="1.5px"></circle><text x="20" dy="0.35em" class="node-text" text-anchor="start" style="fill-opacity: 1;">feedback:string</text></g><g class="node" id="n-14" transform="translate(480,81.81818389892578)"><circle r="6.5" stroke="#4682B4" fill="#FFFFFF" stroke-width="1.5px"></circle><text x="20" dy="0.35em" class="node-text" text-anchor="start" style="fill-opacity: 1;">correct:boolean*</text></g><g class="node" id="n-15" transform="translate(480,49.09090805053711)"><circle r="6.5" stroke="#4682B4" fill="#FFFFFF" stroke-width="1.5px"></circle><text x="20" dy="0.35em" class="node-text" text-anchor="start" style="fill-opacity: 1;">answer:string*</text></g><g class="node label" id="n-16" transform="translate(320,98.18181610107422)"><circle r="6.5" stroke="#CCCCCC" fill="#FFFFFF" stroke-width="1.5px"></circle><text x="20" dy="0.35em" class="node-text node-branch abstract" text-anchor="start" style="" fill-opacity="0.5">object{ }</text></g><g class="node" id="n-17" transform="translate(160,98.18181610107422)"><circle r="6.5" stroke="#4682B4" fill="#FFFFFF" stroke-width="1.5px"></circle><text x="20" dy="0.35em" class="node-text node-branch" text-anchor="start" style="fill-opacity: 1;">answers[ ]:array*</text></g><g class="node" id="n-18" transform="translate(160,65.45454406738281)"><circle r="6.5" stroke="#4682B4" fill="#FFFFFF" stroke-width="1.5px"></circle><text x="20" dy="0.35em" class="node-text" text-anchor="start" style="fill-opacity: 1;">type:string*</text></g><g class="node" id="n-19" transform="translate(160,32.727272033691406)"><circle r="6.5" stroke="#4682B4" fill="#FFFFFF" stroke-width="1.5px"></circle><text x="20" dy="0.35em" class="node-text" text-anchor="start" style="fill-opacity: 1;">question:string*</text></g><g class="node" id="n-20" transform="translate(0,81.81818389892578)"><circle r="6.5" stroke="#4682B4" fill="#FFFFFF" stroke-width="1.5px"></circle><text x="20" dy="0.35em" class="node-text node-branch abstract" text-anchor="start" style="" fill-opacity="0.5">schema{ }</text></g></g></svg>
